# xmcd
#
# Track frame offsets: 
#        150
#        17887
#        36775
#        51150
#        69350
#        85975
#        101025
#        121087
#        136600
#        151437
#        169812
#        183575
#        199150
#        222675
#        240537
#
# Disc length: 3441 seconds
#
# Revision: 0
# Processed by: cddbd v1.5.2PL0 Copyright (c) Steve Scherf et al.
# Submitted via: ExactAudioCopy v1.3
#
DISCID=d10d6f0f
DTITLE=邓丽君 - 莫忘今宵 
DYEAR=1993
DGENRE=Pop
TTITLE0=莫忘今宵
TTITLE1=人面桃花
TTITLE2=水上人
TTITLE3=多少黎明多少黄昏里
TTITLE4=情飘飘
TTITLE5=昨天今天
TTITLE6=月夜诉情
TTITLE7=爱慕
TTITLE8=夜雾
TTITLE9=初次尝到寂寞
TTITLE10=眼泪中的爱
TTITLE11=甜蜜的小雨
TTITLE12=夏日圣诞
TTITLE13=请你别再找我
TTITLE14=微风细雨
EXTD=
EXTT0=
EXTT1=
EXTT2=
EXTT3=
EXTT4=
EXTT5=
EXTT6=
EXTT7=
EXTT8=
EXTT9=
EXTT10=
EXTT11=
EXTT12=
EXTT13=
EXTT14=
PLAYORDER=
